<svg role="img" viewBox="0 0 24 24" xmlns="http://www.w3.org/2000/svg" fill="#000000"><title>GitHub Copilot</title><path d="M23.922 16.992c-.861 1.495-5.859 5.023-11.922 5.023-6.063 0-11.061-3.528-11.922-5.023A.641.641 0 010 16.736v-2.869a.841.841 0 01.053-.22c.372-.935 1.347-2.292 2.605-2.929V8.952c0-.119.029-.235.083-.34.378-.738 1.524-2.123 3.291-2.123 1.085 0 1.94.355 2.564.738a8.354 8.354 0 013.404-.738 8.36 8.36 0 013.405.738c.624-.383 1.479-.738 2.564-.738 1.767 0 2.913 1.385 3.291 2.123a.766.766 0 01.083.34v1.766c1.258.637 2.233 1.994 2.605 2.929a.841.841 0 01.053.22v2.869a.641.641 0 01-.078.256zM12 19.531c4.063 0 7.594-1.992 7.594-3.539 0-.547-.422-.984-.984-.984H5.391c-.563 0-.984.437-.984.984 0 1.547 3.531 3.539 7.593 3.539zm-3.633-7.078c.984 0 1.781.797 1.781 1.781s-.797 1.781-1.781 1.781-1.781-.797-1.781-1.781.797-1.781 1.781-1.781zm7.266 0c.984 0 1.781.797 1.781 1.781s-.797 1.781-1.781 1.781-1.781-.797-1.781-1.781.797-1.781 1.781-1.781z"/></svg>
